<?xml version="1.0" encoding="UTF-8"?>
<svg width="70px" height="61px" viewBox="0 0 70 61" version="1.1" xmlns="http://www.w3.org/2000/svg" xmlns:xlink="http://www.w3.org/1999/xlink">
    <!-- Generator: Sketch 44.1 (41455) - http://www.bohemiancoding.com/sketch -->
    <title>Page 1</title>
    <desc>Created with Sketch.</desc>
    <defs></defs>
    <g id="Page-1" stroke="none" stroke-width="1" fill="none" fill-rule="evenodd">
        <path d="M35,11.390625 C35,11.390625 34.6875,10.830735 34.0625,9.710935 C33.4375,8.591145 32.46094,7.367195 31.13281,6.039065 C29.80468,4.710935 28.11199,3.500005 26.05469,2.406255 C23.99739,1.312495 21.56251,0.765625 18.75,0.765625 C15.67707,0.765625 12.98178,1.351555 10.66406,2.523435 C8.346343,3.695315 6.393237,5.257805 4.804688,7.210935 C3.216138,9.164075 2.018233,11.390615 1.210938,13.890625 C0.4036418,16.390635 0,18.942695 0,21.546875 C0,25.869815 1.822898,30.322895 5.46875,34.906255 C9.114602,39.489605 13.12498,43.669255 17.5,47.445315 C21.87502,51.221373 25.8854,54.30728 29.53125,56.703125 C33.1771,59.09897 35,60.296875 35,60.296875 C35,60.296875 36.8229,59.09897 40.46875,56.703125 C44.1146,54.30728 48.09894,51.234394 52.42188,47.484375 C56.74481,43.734355 60.72915,39.567735 64.375,34.984375 C68.02085,30.401015 69.84375,25.921895 69.84375,21.546875 C69.84375,18.890615 69.42709,16.312515 68.59375,13.812495 C67.76041,11.312485 66.56251,9.098965 65,7.171875 C63.43749,5.244785 61.49741,3.695315 59.17969,2.523435 C56.86197,1.351555 54.21876,0.765625 51.25,0.765625 C48.28124,0.765625 45.76824,1.312495 43.71094,2.406255 C41.65364,3.500005 39.98699,4.710935 38.71094,6.039065 C37.43489,7.367195 36.4974,8.591145 35.89844,9.710935 C35.29948,10.830735 35,11.390625 35,11.390625 Z" fill="#000000"></path>
    </g>
</svg>