<?xml version="1.0" encoding="UTF-8"?>
<svg width="18px" height="18px" viewBox="0 0 18 18" version="1.1" xmlns="http://www.w3.org/2000/svg" xmlns:xlink="http://www.w3.org/1999/xlink">
    <!-- Generator: Sketch 44.1 (41455) - http://www.bohemiancoding.com/sketch -->
    <title>Desktop</title>
    <desc>Created with Sketch.</desc>
    <defs></defs>
    <g id="Page-1" stroke="none" stroke-width="1" fill="none" fill-rule="evenodd">
        <g id="Desktop" fill-rule="nonzero" fill="#222222">
            <path d="M17.9929563,6.99645952 C17.8467157,11.2847293 14.3315755,14.7116556 10.007081,14.7119911 L10.007081,13.3347806 C11.700587,13.3347806 13.1291158,12.2134911 13.5943352,10.6722631 C11.7237306,10.4056089 10.284133,8.80199385 10.284133,6.85793348 C10.284133,4.72704742 12.0111805,3 14.1420665,3 C16.2270008,3 17.9218485,4.65593963 17.9929563,6.72410323 L18,6.71940744 C18,6.75026554 17.9979875,6.78078822 17.9976521,6.81164632 C17.9976521,6.82707538 18,6.84216901 18,6.85793348 C18,6.90489146 17.9946334,6.95017237 17.9929563,6.99645952 Z M7.98553992,6.99645952 C7.83896394,11.2847293 4.32449455,14.7116556 -3.55271368e-15,14.7119911 L-3.55271368e-15,13.3347806 C1.69350601,13.3347806 3.12203485,12.2134911 3.58691885,10.6722631 C1.71631417,10.4056089 0.276716668,8.80199385 0.276716668,6.85793348 C0.276716668,4.72704742 2.00376409,3 4.13465014,3 C6.21958446,3 7.91443213,4.65593963 7.98553992,6.72410323 L7.99258362,6.71940744 C7.99258362,6.75026554 7.99057114,6.78078822 7.99023572,6.81164632 C7.99023572,6.82707538 7.99258362,6.84216901 7.99258362,6.85793348 C7.99258362,6.90489146 7.98721699,6.95017237 7.98553992,6.99645952 Z" id="Combined-Shape"></path>
        </g>
    </g>
</svg>